<svg xmlns="http://www.w3.org/2000/svg" xmlns:xlink="http://www.w3.org/1999/xlink" width="79.125" height="110.839"><defs><linearGradient id="a" x1="-10.229" x2="-10.229" y1="13.597" y2="14.597" gradientUnits="objectBoundingBox"><stop offset=".387" stop-color="#d1d3d4" stop-opacity="0"/><stop offset="1" stop-color="#d1d3d4"/></linearGradient><linearGradient id="c" x1="-9.516" x2="-9.516" y1="14.078" y2="15.078" xlink:href="#a"/><linearGradient id="b" x1="-5.39" x2="-4.39" y1="6.703" y2="6.703" gradientUnits="objectBoundingBox"><stop offset="0" stop-color="#e8e7e5"/><stop offset="1" stop-color="#fff"/></linearGradient><linearGradient id="d" x1="-4.964" x2="-3.964" y1="30.297" y2="30.297" xlink:href="#b"/></defs><g data-name="css 3"><path fill="#2062af" d="m71.707 102.185-32.144 8.655-32.145-8.655L0 21.824h79.125Z" data-name="Path 246"/><path fill="#3c9cd7" d="M39.562 28.333v75.6l.073.02 26.013-7 6-68.619Z" data-name="Path 247"/><path d="M21.319 10.017V5.234h6.978V0H16.085v14.793h12.212v-4.776Zm19.532-4.783h4.879V0H33.516v5.234c1.634 1.634 2.486 2.416 4.849 4.779h-4.849v4.775h12.213v-4.771Zm17.31 0h4.879V0H50.826v5.234c1.634 1.634 2.487 2.416 4.85 4.779h-4.85v4.775H63.04v-4.771Z" data-name="Path 248"/><path fill="#fff" d="m39.533 48.426-23.007 9.582.763 9.487 22.244-9.511 23.662-10.116.981-9.7-24.643 10.263Z" data-name="Path 249"/><path fill="url(#a)" d="m171.677 249.238.763 9.487 22.244-9.511v-9.558Z" data-name="Path 250" transform="translate(-155.151 -191.23)"/><path fill="url(#c)" d="m293.811 196.167-24.643 10.263v9.558l23.662-10.116Z" data-name="Path 251" transform="translate(-229.635 -158.004)"/><path fill="url(#b)" d="m171.827 280.258.763 9.487 34.13.109-.763 12.649-11.231 3.162-10.8-2.726-.654-7.851h-10.028l1.309 15.156 20.282 6 20.172-5.888 2.617-30.094Z" data-name="Path 252" transform="translate(-155.265 -222.25)"/><path d="M39.533 58.008H16.526l.763 9.487 22.244.071Zm0 25.376-.109.03-10.795-2.726-.654-7.851H17.948l1.308 15.156 20.281 6Z" data-name="Path 253" opacity=".05"/><path fill="url(#d)" d="M162.9 196.167h49.721l-.981 9.7H164.1Z" data-name="Path 254" transform="translate(-148.443 -158.004)"/><path d="M39.533 38.163H14.456l1.2 9.7h23.879Z" data-name="Path 255" opacity=".05"/></g></svg>