<svg xmlns="http://www.w3.org/2000/svg" width="78.714" height="111.105"><g data-name="html 5"><path fill="#e44d26" d="m78.714 21.835-7.171 80.334-32.234 8.936-32.145-8.924L0 21.835Z" data-name="Path 267"/><path fill="#f16529" d="m39.357 104.274 26.047-7.221 6.128-68.649H39.357Z" data-name="Path 268"/><path fill="#ebebeb" d="M25.416 48.113h13.94v-9.849H14.647l.236 2.644 2.422 27.155h22.052v-9.859h-13.04Zm2.221 24.872h-9.892l1.38 15.472 20.186 5.6.045-.012V83.796l-.043.011-10.974-2.963-.7-7.859Z" data-name="Path 269"/><path d="M7.323 0h5.008v4.948h4.581V0h5.008v14.983h-5.008V9.966h-4.581v5.017H7.323V0Zm21.182 4.969h-4.408V0h13.827v4.969h-4.41v10.014h-5.008V4.969ZM40.119 0h5.224l3.212 5.264L51.761 0h5.224v14.983h-4.988V7.556l-3.445 5.327h-.086l-3.448-5.327v7.426h-4.9Zm19.358 0h5.009v10.03h7.042v4.952H59.477V0Z" data-name="Path 270"/><path fill="#fff" d="M39.323 68.057h12.134l-1.144 12.78-10.991 2.966v10.252l20.2-5.6.148-1.665 2.316-25.943.24-2.646H39.323Zm0-19.969v.024h23.8l.2-2.215.449-5 .235-2.644H39.323v9.83Z" data-name="Path 271"/></g></svg>